# xmcd
#
# Track frame offsets:
#	150
#	19874
#	34938
#	72114
#	89487
#	111438
#	130623
#	141622
#	160964
#	188334
#	207764
#	223526
#	241120
#	259122
#
# Disc length: 3829 seconds
#
# Revision: 2
# Processed by: cddbd v1.5.2PL0 Copyright (c) Steve Scherf et al.
# Submitted via: audiograbber 1.83.01
#
DISCID=c60ef30e
DTITLE=Various Artist - Sharp Dressed Men - A Tribute To ZZ Top
DYEAR=2002
DGENRE=Country
TTITLE0=Lonestar - Gimme All Your Lovin'
TTITLE1=Brad Paisley - Sharp Dressed Men
TTITLE2=Hank Williams Jr. - Jesus Left Chicago
TTITLE3=Tracy Byrd - La Grange
TTITLE4=Brooks and Dunn - Rough Boy
TTITLE5=Dwight Yoakam - I'm Bad, I'm Nationwide
TTITLE6=Willie Nelson - She Loves My Automobile
TTITLE7=Andy Griggs - I Need You Tonight
TTITLE8=The Warren Brothers - Cheap Sunglasses
TTITLE9=Trace Adkins - Legs
TTITLE10=Kenny Chesney - Tush
TTITLE11=Montgomery Gentry - Just Got Paid
TTITLE12=Hank Williams III - Fearless Boogie
TTITLE13=Alan Jackson - Sure Got Cold After The Rain Fell
EXTD=
EXTT0=
EXTT1=
EXTT2=
EXTT3=
EXTT4=
EXTT5=
EXTT6=
EXTT7=
EXTT8=
EXTT9=
EXTT10=
EXTT11=
EXTT12=
EXTT13=
PLAYORDER=
